<?xml version="1.0" encoding="UTF-8" standalone="no"?>
<!-- Created with Inkscape (http://www.inkscape.org/) -->

<svg
   xmlns:dc="http://purl.org/dc/elements/1.1/"
   xmlns:cc="http://creativecommons.org/ns#"
   xmlns:rdf="http://www.w3.org/1999/02/22-rdf-syntax-ns#"
   xmlns:svg="http://www.w3.org/2000/svg"
   xmlns="http://www.w3.org/2000/svg"
   xmlns:xlink="http://www.w3.org/1999/xlink"
   xmlns:sodipodi="http://sodipodi.sourceforge.net/DTD/sodipodi-0.dtd"
   xmlns:inkscape="http://www.inkscape.org/namespaces/inkscape"
   id="svg3039"
   version="1.1"
   inkscape:version="0.48.5 r10040"
   width="750"
   height="750"
   sodipodi:docname="uac_black_white_by_norbert79.png"
   inkscape:export-filename="/home/shawn/.i3/assets/lock-icon.png"
   inkscape:export-xdpi="76.252571"
   inkscape:export-ydpi="76.252571">
  <metadata
     id="metadata3045">
    <rdf:RDF>
      <cc:Work
         rdf:about="">
        <dc:format>image/svg+xml</dc:format>
        <dc:type
           rdf:resource="http://purl.org/dc/dcmitype/StillImage" />
        <dc:title></dc:title>
      </cc:Work>
    </rdf:RDF>
  </metadata>
  <defs
     id="defs3043">
    <linearGradient
       id="linearGradient3942">
      <stop
         style="stop-color:#196560;stop-opacity:1;"
         offset="0"
         id="stop3944" />
      <stop
         style="stop-color:#2b9f60;stop-opacity:1"
         offset="1"
         id="stop3946" />
    </linearGradient>
    <linearGradient
       inkscape:collect="always"
       xlink:href="#linearGradient3942"
       id="linearGradient3948"
       x1="375"
       y1="72"
       x2="374"
       y2="453"
       gradientUnits="userSpaceOnUse" />
  </defs>
  <sodipodi:namedview
     pagecolor="#ffffff"
     bordercolor="#666666"
     borderopacity="1"
     objecttolerance="10"
     gridtolerance="10"
     guidetolerance="10"
     inkscape:pageopacity="0"
     inkscape:pageshadow="2"
     inkscape:window-width="1916"
     inkscape:window-height="1155"
     id="namedview3041"
     showgrid="false"
     fit-margin-top="0"
     fit-margin-left="0"
     fit-margin-right="0"
     fit-margin-bottom="0"
     inkscape:showpageshadow="false"
     showborder="true"
     inkscape:zoom="1"
     inkscape:cx="174.1458"
     inkscape:cy="493.87741"
     inkscape:window-x="0"
     inkscape:window-y="43"
     inkscape:window-maximized="0"
     inkscape:current-layer="svg3039" />
  <path
     style="fill:#000000"
     d=""
     id="path3065"
     inkscape:connector-curvature="0" />
  <path
     style="fill:#000000"
     d=""
     id="path3063"
     inkscape:connector-curvature="0" />
  <path
     style="fill:#000000"
     d=""
     id="path3057"
     inkscape:connector-curvature="0" />
  <path
     style="fill:#000000"
     d=""
     id="path3055"
     inkscape:connector-curvature="0" />
  <path
     style="fill:#000000"
     d=""
     id="path3053"
     inkscape:connector-curvature="0" />
  <path
     style="fill:#000000"
     d=""
     id="path3051"
     inkscape:connector-curvature="0" />
  <path
     style="fill:#000000"
     d=""
     id="path3049"
     inkscape:connector-curvature="0" />
  <g
     id="g3950">
    <path
       inkscape:export-ydpi="76.209999"
       inkscape:export-xdpi="76.209999"
       inkscape:export-filename="/home/shawn/Downloads/text3902.png"
       sodipodi:nodetypes="ccccccc"
       inkscape:connector-curvature="0"
       id="path3861"
       d="m 599.3494,462.01734 c -97.48549,0.222 -319.3728,0.64012 -446.97386,0.93072 L 129.49772,424.33128 C 191.606,324.47565 301.38297,152.2837 351.22291,71.7905 l 50.62248,-0.8009 220.11951,352.03186 z"
       inkscape:transform-center-y="-72.250371"
       inkscape:transform-center-x="-0.38592204"
       style="fill:#cccccc;fill-opacity:1;stroke:none" />
    <path
       inkscape:export-ydpi="76.209999"
       inkscape:export-xdpi="76.209999"
       inkscape:export-filename="/home/shawn/Downloads/text3902.png"
       sodipodi:nodetypes="ccccccccssscccccccccccssssscccccccccccccssscccccccccccsssccccccccccccccccccccccccccccccccccsssssssssssccccccssscccccccssscscsccsssscccccssccccccscccsscssssssssssscccccccsssscsccccssscc"
       inkscape:connector-curvature="0"
       id="path3069"
       d="m 303.03352,488.66558 -14.5549,-14 -29.42826,0 -29.42827,0 -3.21449,-4 -3.21449,-4 -35.35156,0 -35.35156,0 -12.10131,-20.82564 c -6.65573,-11.4541 -12.10132,-21.09665 -12.10132,-21.42788 0,-0.33123 12.15,-20.68386 27,-45.22806 l 27,-44.62581 0,-7.44707 0,-7.44706 15.5,-22.90319 15.5,-22.90318 0,-21.44494 0,-21.44494 19.75,-32.62881 19.75,-32.62881 18.66844,-0.0223 18.66844,-0.0223 2.08156,-3.36803 c 1.14486,-1.85243 2.08156,-3.65243 2.08156,-4.00001 0,-0.34758 -8.1,-0.63197 -18,-0.63197 -9.9,0 -18,-0.23394 -18,-0.51987 0,-0.28593 1.13065,-2.31093 2.51254,-4.5 l 2.51255,-3.98012 18.78599,0 18.786,0 24.50133,-38.75 24.50133,-38.75 26.45013,-0.24271 26.45013,-0.24271 24.31299,38.99271 24.313,38.99271 18.88896,0 18.88897,0 3.09608,4.49999 3.09608,4.5 -18.54804,0 c -10.20142,0 -18.54804,0.24735 -18.54804,0.54966 0,0.30232 0.68656,1.87732 1.52568,3.5 l 1.52568,2.95034 18.82292,0 18.82291,0 19.65141,31.93066 19.6514,31.93067 0,21.61193 0,21.61193 15,22.38202 15,22.38202 0,9.21247 0,9.21247 27.34617,43.61291 c 15.0404,23.98711 27.60375,44.07315 27.91856,44.63565 0.31481,0.56251 -5.16781,10.46251 -12.18361,22 l -12.756,20.97727 -34.67688,0.26297 -34.67689,0.26298 -3.60204,3.98702 -3.60203,3.98703 -29.14704,0 -29.14703,0 -13.97321,14 -13.97321,14 -15.26339,0 -15.2634,0 0,-3.5 0,-3.5 -28.5,0 -28.5,0 0,3.5 0,3.5 -15.34947,0 -15.34947,0 z M 585.45712,431.22472 603.1241,401.78387 502.95573,238.2289 402.78736,74.67393 376.3084,74.91976 349.82944,75.16559 249.03937,238.482 148.2493,401.79842 l 17.26903,29.41806 17.26903,29.41806 192.50139,0.0155 192.50138,0.0155 17.66699,-29.44086 z M 186.53736,427.0033 c -1.74619,-0.7046 -1.79298,-36.39474 -0.05,-38.13772 1.64034,-1.64034 20.95966,-1.64034 22.6,0 1.68814,1.68814 1.68814,35.91186 0,37.6 -1.18898,1.18898 -19.83415,1.63359 -22.55,0.53772 z m 352.95,-0.53772 c -1.68814,-1.68814 -1.68814,-35.91186 0,-37.6 1.25742,-1.25742 19.23628,-1.73729 22.21821,-0.59301 1.36471,0.52369 1.58179,3.18511 1.58179,19.39301 0,16.2079 -0.21708,18.86932 -1.58179,19.39301 -2.98193,1.14428 -20.96079,0.66441 -22.21821,-0.59301 z m -324.97691,-81.77267 -6.27692,-11.9401 31.8529,-50.96817 31.8529,-50.96816 11.92402,6.32374 11.92401,6.32375 0.61356,12.85078 c 1.09105,22.85166 8.2111,38.93922 24.28525,54.87184 7.54752,7.48106 10.66799,9.78566 18.27929,13.5 l 9.17811,4.47895 0.0719,13.75 0.0719,13.75 -63.75,-0.0163 -63.75,-0.0163 -6.27691,-11.94011 z m 30.20548,2.4012 c 1.25831,-1.25831 1.57143,-4.0235 1.57143,-13.87755 0,-14.49075 -0.18257,-14.79316 -8.66563,-14.35344 l -5.83437,0.30242 -0.27934,13.92285 c -0.21002,10.46753 0.0382,14.12432 1,14.73468 2.27637,1.44453 10.52709,0.95186 12.20791,-0.72896 z m 157.57143,-3.91741 0,-13.48884 7.75,-3.92951 c 9.23392,-4.68191 12.82474,-7.27165 20.61911,-14.87074 9.91232,-9.66398 17.52763,-22.55656 21.25616,-35.98633 0.87584,-3.15466 1.88095,-11.50685 2.23358,-18.56042 l 0.64115,-12.82469 12.02795,-6.38577 12.02796,-6.38577 31.83715,50.9534 31.83715,50.95341 -4.04831,7.75705 c -2.22657,4.26638 -5.09087,9.66584 -6.3651,11.9988 l -2.3168,4.24175 -63.75,0.008 -63.75,0.008 0,-13.48884 z m 115.77934,4.64637 c 0.96185,-0.61036 1.21002,-4.26715 1,-14.73468 l -0.27934,-13.92285 -6.5,0 -6.5,0 -0.27934,13.92285 c -0.31391,15.64558 -0.35711,15.54652 6.77934,15.54652 2.475,0 5.07571,-0.36532 5.77934,-0.81184 z M 367.78736,316.03031 c -24.34265,-3.73439 -44.78064,-21.90892 -51.01452,-45.36477 -1.94,-7.29952 -1.8896,-22.64491 0.0997,-30.35566 7.72312,-29.93563 38.65453,-49.89796 68.75292,-44.37134 19.60742,3.60029 35.43938,15.4962 44.22094,33.227 12.47605,25.19035 5.85847,55.14626 -16.25977,73.6034 -5.47562,4.56927 -16.55933,10.11957 -23.53944,11.78765 -5.51479,1.31791 -17.92133,2.13929 -22.25983,1.47372 z M 307.39759,196.89154 c -5.16437,-3.17406 -9.35409,-6.21089 -9.31049,-6.74851 0.0436,-0.53762 13.70003,-23.15021 30.34761,-50.2502 l 30.26834,-49.27273 16.96331,0.27273 16.96331,0.27272 30.73213,50.24798 30.73214,50.24797 -9.90778,5.56084 -9.90778,5.56083 -6.50975,-5.52261 c -8.66996,-7.35526 -18.24152,-12.89133 -27.98127,-16.18403 -11.54339,-3.90245 -30.43361,-4.58165 -42.50772,-1.52836 -13.87328,3.50826 -28.30874,11.43961 -36.42937,20.01559 -1.6154,1.70598 -3.1904,3.10111 -3.5,3.10029 -0.3096,-8.1e-4 -4.78831,-2.59844 -9.95268,-5.77251 z m 75.38977,-74.22599 0,-14.5 -7.75,-0.29207 -7.75,-0.29206 0,14.3754 c 0,7.90647 0.31784,14.69323 0.70631,15.08171 0.38847,0.38847 3.87597,0.57597 7.75,0.41666 l 7.04369,-0.28964 z"
       style="fill:url(#linearGradient3948);fill-opacity:1" />
    <text
       inkscape:export-ydpi="76.209999"
       inkscape:export-xdpi="76.209999"
       inkscape:export-filename="/home/shawn/Downloads/text3902.png"
       transform="scale(1.1801446,0.84735379)"
       sodipodi:linespacing="125%"
       id="text3071"
       y="520.95691"
       x="182.02167"
       style="font-size:116.96442413px;font-style:normal;font-variant:normal;font-weight:bold;font-stretch:normal;line-height:125%;letter-spacing:8.12252903px;word-spacing:0px;fill:#333333;fill-opacity:1;stroke:none;font-family:Black Ops One;-inkscape-font-specification:Black Ops One Bold"
       xml:space="preserve"><tspan
         y="520.95691"
         x="182.02167"
         id="tspan3073"
         sodipodi:role="line">UAC</tspan></text>
    <text
       inkscape:export-ydpi="76.209999"
       inkscape:export-xdpi="76.209999"
       inkscape:export-filename="/home/shawn/Downloads/text3902.png"
       sodipodi:linespacing="125%"
       id="text3898"
       y="568.29883"
       x="241.70473"
       style="font-size:60.08760071px;font-style:normal;font-variant:normal;font-weight:normal;font-stretch:normal;line-height:125%;letter-spacing:0px;word-spacing:0px;fill:#333333;fill-opacity:1;stroke:none;font-family:Black Ops One;-inkscape-font-specification:Black Ops One"
       xml:space="preserve"><tspan
         y="568.29883"
         x="241.70473"
         id="tspan3900"
         sodipodi:role="line">STATION</tspan></text>
    <text
       inkscape:export-ydpi="76.209999"
       inkscape:export-xdpi="76.209999"
       sodipodi:linespacing="125%"
       id="text3902"
       y="615.97699"
       x="274.66232"
       style="font-size:48.12519836px;font-style:normal;font-variant:normal;font-weight:normal;font-stretch:normal;line-height:125%;letter-spacing:0px;word-spacing:0px;fill:#333333;fill-opacity:1;stroke:none;font-family:Black Ops One;-inkscape-font-specification:Black Ops One"
       xml:space="preserve"><tspan
         y="615.97699"
         x="274.66232"
         id="tspan3904"
         sodipodi:role="line">LOCKED</tspan></text>
  </g>
</svg>
